Coordinates
version=1
nRows=11
nColumns=36
inDegrees=yes

Units are S.I. units (second, meters, Newtons, ...)
If the header above contains a line with 'inDegrees', this indicates whether rotational values are in degrees (yes) or radians (no).

endheader
time	pelvis_tilt	pelvis_list	pelvis_rotation	pelvis_tx	pelvis_ty	pelvis_tz	hip_flexion_r	hip_adduction_r	hip_rotation_r	knee_angle_r	knee_angle_r_beta	ankle_angle_r	subtalar_angle_r	mtp_angle_r	hip_flexion_l	hip_adduction_l	hip_rotation_l	knee_angle_l	knee_angle_l_beta	ankle_angle_l	subtalar_angle_l	mtp_angle_l	lumbar_extension	lumbar_bending	lumbar_rotation	arm_flex_r	arm_add_r	arm_rot_r	elbow_flex_r	pro_sup_r	arm_flex_l	arm_add_l	arm_rot_l	elbow_flex_l	pro_sup_l
      3.47457630	     -0.40210393	     -0.29612701	      3.67233606	      0.29836368	      0.94575067	     -0.10860094	     -1.86392880	     -4.93310273	      2.39368437	      0.81910288	      0.01429604	      2.22240593	    -10.06899336	     -7.49999987	     -0.98776879	     -3.08063543	      2.33373798	      1.53948018	      0.02686900	     -1.06929208	     -9.38045773	     -7.49999987	      5.70826744	     -0.56550275	      0.64962854	     82.04068715	    -12.45463656	      1.32523708	     45.45876879	     80.96716983	     95.71441980	    -10.59725898	     31.11699521	     29.50681997	     59.79236550
      3.49152540	     -0.38965345	     -0.29487688	      3.60419079	      0.29854688	      0.94532926	     -0.10876102	     -1.87988287	     -4.92865821	      2.38857639	      0.81259439	      0.01418245	      2.31053865	    -10.19066080	     -7.49999987	     -1.01193973	     -3.04472339	      2.29534807	      1.50681528	      0.02629889	     -1.11063914	     -9.50776163	     -7.49999987	      5.67769134	     -0.53229702	      0.77819410	     82.05733308	    -12.43703667	      1.18729462	     45.37925626	     82.03308071	     96.01378129	    -10.24006138	     30.56090514	     28.96679911	     59.76491981
      3.50847460	     -0.37691535	     -0.28540515	      3.56688622	      0.29834545	      0.94563468	     -0.10859347	     -1.90209451	     -4.94725563	      2.25265941	      0.85031505	      0.01484080	      2.38706824	    -10.19240413	     -7.49999987	     -1.03163312	     -2.99947864	      2.26525320	      1.51024965	      0.02635883	     -1.04660320	     -9.61929079	     -7.49999987	      5.62846737	     -0.53203487	      0.81019670	     82.00600809	    -12.39059756	      1.26133469	     45.40435027	     81.09465411	     96.22476001	    -10.21407221	     30.81438858	     28.60072839	     59.95618354
      3.52542370	     -0.36592603	     -0.25251093	      3.49833762	      0.29853267	      0.94531441	     -0.10865060	     -1.93401700	     -4.98494566	      2.40191748	      0.84656916	      0.01477542	      2.37006141	    -10.53468692	     -7.49999987	     -1.03879652	     -2.95838261	      2.16418470	      1.54158829	      0.02690579	     -1.01621901	     -9.60578544	     -7.49999987	      5.57657101	     -0.52492021	      0.84428417	     81.80737024	    -12.19755535	      0.72957085	     45.74871530	     81.60818431	     96.23913765	    -10.33329645	     30.72379453	     28.76661934	     60.12159048
      3.54237290	     -0.38245091	     -0.23644800	      3.37662792	      0.29828136	      0.94564458	     -0.10844813	     -1.91912682	     -4.99151931	      2.46791677	      0.83509833	      0.01457522	      2.32774278	    -10.73309083	     -7.49999987	     -1.03721924	     -2.94533614	      2.08188638	      1.50973536	      0.02634985	     -1.08025501	     -9.64000361	     -7.49999987	      5.52226690	     -0.49712163	      0.94413453	     81.77506721	    -11.93499391	     -0.00075564	     45.82755363	     82.20992880	     96.08586579	    -10.27097807	     30.29787054	     29.12949860	     60.02648147
      3.55932200	     -0.38425479	     -0.19738529	      3.36826535	      0.29852537	      0.94533610	     -0.10860371	     -1.95314210	     -5.01592853	      2.25610376	      0.81690421	      0.01425767	      2.46555124	    -10.55861149	     -7.49999987	     -1.01503837	     -2.90348370	      2.22858416	      1.53478680	      0.02678708	     -1.21818267	     -9.85131974	     -7.49999987	      5.55795014	     -0.49286945	      0.83761065	     81.78765398	    -11.81919432	      0.63406829	     45.66096568	     77.54903534	     95.70591850	    -10.38256468	     28.96159113	     29.69924114	     59.83133468
      3.57627120	     -0.36134797	     -0.18424258	      3.31306873	      0.30240096	      0.94552411	     -0.10422332	     -2.04124081	     -4.94288162	      2.24685337	      0.82161039	      0.01433981	      2.46741052	    -10.57116839	     -7.49999987	     -1.07386821	     -2.97432117	      2.25191031	      1.57386913	      0.02746920	     -1.26541090	     -9.83000103	     -7.49999987	      5.63807611	     -0.57611228	      0.87751905	     81.75595103	    -11.76820519	      0.64886503	     45.69592315	     77.56640731	     95.70467689	    -10.39393108	     28.96981018	     29.71634610	     59.83432742
      3.59322030	     -0.37070802	     -0.15667120	      3.24117824	      0.29837752	      0.94517623	     -0.10848488	     -2.06953275	     -4.98244002	      2.23116654	      0.81282674	      0.01418650	      2.47238259	    -10.58983509	     -7.49999987	     -1.06911778	     -2.95505263	      2.25234948	      1.57307577	      0.02745535	     -1.29041324	     -9.82273052	     -7.49999987	      5.63588517	     -0.54101038	      0.83820615	     81.71603877	    -11.74678777	      0.65361301	     45.71602739	     77.57816444	     95.69005156	    -10.34025326	     28.98926398	     29.74673870	     59.83841442
      3.61016950	     -0.42528933	     -0.08756578	      3.20107436	      0.29828313	      0.94549585	     -0.10821228	     -2.04716824	     -5.03139029	      2.49142311	      0.75847926	      0.01323796	      2.34735422	    -11.07334347	     -7.49999987	     -1.00784599	     -2.90006147	      2.27621635	      1.55722038	      0.02717862	     -1.47297794	     -9.89085250	     -7.49999987	      5.70883469	     -0.66326272	      0.93157671	     81.26383603	    -11.83950028	      0.69103498	     46.59254575	     73.65294313	     95.22076033	    -10.25009298	     28.61137153	     31.04059642	     60.02637689
      3.62711860	     -0.35660213	     -0.03538273	      3.24584083	      0.29841925	      0.94530947	     -0.10826166	     -2.14421233	     -5.07974526	      2.30605947	      0.74895751	      0.01307177	      2.41056104	    -10.99339300	     -7.49999987	     -1.07019985	     -2.86104472	      2.44325917	      1.52802748	      0.02666911	     -1.64414993	    -10.19605991	     -7.49999987	      5.62102849	     -0.74074188	      1.16122764	     80.92701522	    -11.87473857	     -1.40556663	     47.30329148	     82.86729739	     95.23399197	    -10.16402353	     30.20628706	     31.33163529	     60.69374437
      3.64406780	     -0.33416036	     -0.00096948	      3.26326153	      0.29823315	      0.94575761	     -0.10809708	     -2.17074585	     -5.12886465	      2.41639205	      0.78108640	      0.01363253	      2.30275973	    -11.28948211	     -7.49999987	     -1.07624659	     -2.83362173	      2.56922800	      1.56167371	      0.02725635	     -1.89330484	    -10.74002119	     -7.49999987	      5.62789790	     -0.74559616	      1.20486898	     81.19649954	    -12.15904133	     -0.09073310	     46.87020435	     77.78348168	     95.00905314	     -9.87424068	     29.43746641	     31.46335051	     60.37111332
